<svg width="48" height="17" viewBox="0 0 48 17" fill="none" xmlns="http://www.w3.org/2000/svg">
<path d="M47.6938 0L12.7999 14.8591C9.90596 16.0835 7.47582 16.6957 5.50944 16.6957C3.28336 16.6957 1.66944 15.9165 0.667703 14.3583C0.0369788 13.3565 -0.148528 12.0858 0.111182 10.5461C0.370892 9.00638 1.05727 7.36464 2.17031 5.62087C3.09785 4.21101 4.61901 2.35594 6.73379 0.0556521C5.99176 1.2429 5.47234 2.46725 5.17553 3.7287C4.61901 6.10319 5.11988 7.84696 6.67814 8.96C7.42017 9.47942 8.44046 9.73913 9.73901 9.73913C10.7778 9.73913 11.9465 9.57218 13.2451 9.23826L47.6938 0Z" fill="black"/>
</svg>
